<svg xmlns="http://www.w3.org/2000/svg" width="161.458" height="59.01" viewBox="0 0 161.458 59.01"><g transform="translate(-1689.721 -52)"><g transform="translate(1689.721 52)"><g transform="translate(0 46.588)"><path d="M9758.646,1558.932c0,1.684.654,2.227,2.641,2.227a18.675,18.675,0,0,0,2.842-.254l.166,1.341a15.753,15.753,0,0,1-3.062.326c-2.969,0-4.154-1.267-4.154-3.549V1553.7c0-2.281,1.186-3.549,4.154-3.549a15.688,15.688,0,0,1,3.063.326l-.166,1.34a18.674,18.674,0,0,0-2.842-.254c-1.986,0-2.641.544-2.641,2.228Z" transform="translate(-9757.078 -1550.15)" fill="#da2d44"/><path d="M9771.669,1558.878c0,1.484.911,2.318,2.823,2.318s2.825-.834,2.825-2.318v-5.034c0-1.485-.912-2.318-2.825-2.318s-2.823.833-2.823,2.318Zm7.215.036c0,2.01-1.258,3.657-4.392,3.657s-4.391-1.647-4.391-3.657v-5.106c0-2.011,1.257-3.658,4.391-3.658s4.392,1.647,4.392,3.658Z" transform="translate(-9757.802 -1550.15)" fill="#da2d44"/></g><path d="M9787.241,1552.134V1562.4h-1.5v-12.059h2.152l5.284,10.321v-10.321h1.493V1562.4h-2.149Z" transform="translate(-9758.669 -1503.572)" fill="#da2d44"/><g transform="translate(41.82 46.588)"><path d="M9804.963,1562.572a10.429,10.429,0,0,1-3.607-.634l.255-1.268a11.6,11.6,0,0,0,3.389.525c1.95,0,2.351-.508,2.351-1.883,0-1.63-.017-1.775-2.515-2.336-2.933-.653-3.279-1.214-3.279-3.713,0-2.1.875-3.114,3.882-3.114a13.871,13.871,0,0,1,3.279.4l-.126,1.321a14.949,14.949,0,0,0-3.118-.344c-1.984,0-2.351.4-2.351,1.792,0,1.667,0,1.739,2.407,2.337,3.224.8,3.389,1.267,3.389,3.621,0,2.1-.621,3.3-3.955,3.3" transform="translate(-9801.355 -1550.15)" fill="#da2d44"/></g><path d="M9817.985,1551.736h-3.627v-1.395h8.82v1.395h-3.627V1562.4h-1.566Z" transform="translate(-9760.257 -1503.572)" fill="#da2d44"/><g transform="translate(68.004 46.588)"><path d="M9833.652,1551.736h-3.007v4.925h3.007c1.494,0,2-.416,2-1.594v-1.738c0-1.195-.51-1.593-2-1.593m-.037,6.3h-2.97v4.365h-1.567v-12.059h4.628c2.606,0,3.518,1.122,3.518,2.969v1.739a2.55,2.55,0,0,1-1.932,2.807l3.152,4.545h-1.8Z" transform="translate(-9829.078 -1550.161)" fill="#da2d44"/><path d="M9852.9,1550.342v8.673c0,1.973-1.148,3.566-4.3,3.566s-4.3-1.593-4.3-3.566v-8.673h1.569v8.583c0,1.485.818,2.264,2.73,2.264s2.735-.779,2.735-2.264v-8.583Z" transform="translate(-9829.923 -1550.161)" fill="#da2d44"/><path d="M9861.227,1558.932c0,1.684.655,2.227,2.643,2.227a18.707,18.707,0,0,0,2.842-.254l.164,1.341a15.77,15.77,0,0,1-3.062.326c-2.971,0-4.154-1.267-4.154-3.549V1553.7c0-2.281,1.184-3.549,4.154-3.549a15.7,15.7,0,0,1,3.063.326l-.164,1.34a18.706,18.706,0,0,0-2.842-.254c-1.987,0-2.643.544-2.643,2.228Z" transform="translate(-9830.776 -1550.15)" fill="#da2d44"/></g><path d="M9875.632,1551.736H9872v-1.395h8.819v1.395H9877.2V1562.4h-1.565Z" transform="translate(-9763.457 -1503.572)" fill="#da2d44"/><rect width="1.567" height="12.059" transform="translate(122.541 46.769)" fill="#da2d44"/><g transform="translate(130.195 46.588)"><path d="M9896.49,1558.878c0,1.484.912,2.318,2.827,2.318s2.823-.834,2.823-2.318v-5.034c0-1.485-.912-2.318-2.823-2.318s-2.827.833-2.827,2.318Zm7.218.036c0,2.01-1.257,3.657-4.391,3.657s-4.392-1.647-4.392-3.657v-5.106c0-2.011,1.256-3.658,4.392-3.658s4.391,1.647,4.391,3.658Z" transform="translate(-9894.926 -1550.15)" fill="#da2d44"/></g><path d="M9912.064,1552.134V1562.4h-1.494v-12.059h2.15l5.285,10.321v-10.321h1.494V1562.4h-2.15Z" transform="translate(-9765.598 -1503.572)" fill="#da2d44"/><g transform="translate(49.446 13.5)"><path d="M9834.283,1536.871l-1.618-2.408h0l-13-19.346h-10.244L9822,1533.863l2.016,3.007a1.905,1.905,0,0,0,1.411.75h8.452c.5,0,.68-.338.4-.75" transform="translate(-9809.429 -1515.117)" fill="#e23952"/></g><path d="M9766.141,1536.809l-9.051-9V1509.83l9.051-8.995Z" transform="translate(-9757.078 -1500.825)" fill="#ae2e3f"/><path d="M9757.092,1529.293h9.051v-1.8Z" transform="translate(-9757.079 -1502.304)" fill="#8d1d2a"/><path d="M9783.919,1519.879v17.988l9.054-9v-4.495Z" transform="translate(-9758.567 -1501.882)" fill="#ae2e3f"/><path d="M9792.973,1529.293h-9.054v-1.8Z" transform="translate(-9758.567 -1502.304)" fill="#ae2e3f"/><path d="M9782.43,1538.395h-16.288l-9.05-9h34.393Z" transform="translate(-9757.079 -1502.41)" fill="#e23952"/><g transform="translate(20.826 13.5)"><path d="M9792.707,1524.112l-9.054-9h-3.618a.9.9,0,0,0-.906.9v7.2a.905.905,0,0,0,.906.9h12.672Z" transform="translate(-9779.129 -1515.117)" fill="#e23952"/></g><path d="M9876.346,1529.412h-36.229l9.058,9h18.113Z" transform="translate(-9761.687 -1502.411)" fill="#ae2e3f"/><path d="M9876.346,1509.825h-36.229l9.058-9h18.113Z" transform="translate(-9761.687 -1500.824)" fill="#ae2e3f"/><path d="M9849.707,1500.825v9h1.814Z" transform="translate(-9762.221 -1500.824)" fill="#8d1d2a"/><path d="M9849.711,1538.414v-9h1.811Z" transform="translate(-9762.219 -1502.411)" fill="#8d1d2a"/><path d="M9868.884,1536.827v-36l9.058,9v18Z" transform="translate(-9763.284 -1500.824)" fill="#e23952"/><path d="M9849.175,1536.827l-9.058-9v-18l9.058-9Z" transform="translate(-9761.687 -1500.824)" fill="#e23952"/><path d="M9829.889,1515.118l-4.53,9h-18.114l-4.527-9Z" transform="translate(-9759.612 -1501.617)" fill="#ae2e3f"/><path d="M9807.246,1500.825l-4.529,9h27.172l-4.53-9Z" transform="translate(-9759.612 -1500.824)" fill="#ae2e3f"/><path d="M9807.512,1524.117v-9h1.811Z" transform="translate(-9759.878 -1501.617)" fill="#8d1d2a"/><path d="M9807.512,1500.825v9h1.811Z" transform="translate(-9759.878 -1500.824)" fill="#8d1d2a"/><path d="M9826.688,1500.825v22.5l9.057-9v-4.5Z" transform="translate(-9760.941 -1500.824)" fill="#e23952"/><g transform="translate(38.576)"><path d="M9797.922,1509.825v26.1a.906.906,0,0,0,.905.9h7.247a.907.907,0,0,0,.9-.9v-35.1Z" transform="translate(-9797.922 -1500.824)" fill="#e23952"/><path d="M9919.233,1501.717a.778.778,0,0,0-.793-.893h-7.247a1.052,1.052,0,0,0-1.019.893l-.161,1.3-4.252,33.81h9.055l4.4-34.942Z" transform="translate(-9803.908 -1500.824)" fill="#ae2e3f"/></g><path d="M9895.64,1500.825l-9.059,36h9.059l9.058-36Z" transform="translate(-9764.265 -1500.824)" fill="#ae2e3f"/><path d="M9908.956,1513.274l6.039,24-5.493-28.341Z" transform="translate(-9765.508 -1501.274)" fill="#8d1d2a"/><path d="M9892.973,1513.313l3.021,24-2.1-27.676Z" transform="translate(-9764.619 -1501.313)" fill="#8d1d2a"/><path d="M9914.286,1536.827h-9.057l-9.056-36h9.056Z" transform="translate(-9764.8 -1500.824)" fill="#e23952"/><path d="M9891.269,1504.164h0l-.309-2.447a1.048,1.048,0,0,0-1.017-.892H9882.7a.779.779,0,0,0-.8.892l.156,1.224,4.262,33.887h9.058Z" transform="translate(-9764.006 -1500.824)" fill="#e23952"/><path d="M9788.2,1500.833h-9.22v0h-12.838l-9.05,8.994h21.888v0h9.22a.91.91,0,0,0,.907-.9v-7.2a.91.91,0,0,0-.907-.9" transform="translate(-9757.079 -1500.824)" fill="#e23952"/><path d="M9925.624,1502.272h-.5v.836h.5c.251,0,.326-.1.326-.262v-.312c0-.212-.1-.262-.326-.262m0,1.111h-.5v.687h-.3V1502h.8c.451,0,.628.2.628.536v.313a.457.457,0,0,1-.3.474l.565.749h-.365Zm-.126,1.535a1.841,1.841,0,0,0,0-3.682,1.841,1.841,0,0,0,0,3.682m0-4.094a2.259,2.259,0,1,1-2.272,2.259,2.165,2.165,0,0,1,2.272-2.259" transform="translate(-9766.301 -1500.824)" fill="#da2d44"/></g></g></svg>